<svg width="16" height="17" viewBox="0 0 16 17" fill="none" xmlns="http://www.w3.org/2000/svg">
<path fill-rule="evenodd" clip-rule="evenodd" d="M10.6667 7.03809C10.4733 6.84475 10.1533 6.84475 9.96 7.03809L7.06 9.93809L6 8.87809C5.80667 8.68475 5.48667 8.68475 5.29333 8.87809C5.1 9.07142 5.1 9.39142 5.29333 9.58475L6.58667 10.8781C6.84666 11.1381 7.26666 11.1381 7.52666 10.8781L10.66 7.74475C10.86 7.55142 10.86 7.23142 10.6667 7.03809ZM12.6667 2.01809H12V1.35142C12 0.984753 11.7 0.684753 11.3333 0.684753C10.9667 0.684753 10.6667 0.984753 10.6667 1.35142V2.01809H5.33333V1.35142C5.33333 0.984753 5.03333 0.684753 4.66667 0.684753C4.3 0.684753 4 0.984753 4 1.35142V2.01809H3.33333C2.59333 2.01809 2.00667 2.61809 2.00667 3.35142L2 12.6848C2 13.4181 2.59333 14.0181 3.33333 14.0181H12.6667C13.4 14.0181 14 13.4181 14 12.6848V3.35142C14 2.61809 13.4 2.01809 12.6667 2.01809ZM11.9997 12.6848H3.99967C3.63301 12.6848 3.33301 12.3848 3.33301 12.0182V5.3515H12.6663V12.0182C12.6663 12.3848 12.3663 12.6848 11.9997 12.6848Z" fill="#8F8F8F"/>
</svg>
