<?xml version="1.0" standalone="no"?>
<!DOCTYPE svg PUBLIC "-//W3C//DTD SVG 20010904//EN"
 "http://www.w3.org/TR/2001/REC-SVG-20010904/DTD/svg10.dtd">
<svg version="1.0" xmlns="http://www.w3.org/2000/svg"
 width="2000.000000pt" height="2000.000000pt" viewBox="0 0 2000.000000 2000.000000"
 preserveAspectRatio="xMidYMid meet">

<g transform="translate(0.000000,2000.000000) scale(0.100000,-0.100000)"
fill="#000000" stroke="none">
<path d="M9179 16016 c-147 -31 -268 -97 -380 -206 -86 -85 -145 -178 -186
-295 l-28 -80 -3 -2920 -2 -2919 -888 885 c-488 488 -909 901 -935 919 -74 49
-184 96 -270 115 -116 26 -285 17 -392 -19 -201 -68 -372 -223 -454 -411 -98
-222 -76 -494 56 -705 50 -79 3125 -3156 3213 -3214 127 -85 263 -126 415
-126 152 0 288 41 415 126 46 30 530 509 1632 1611 l1566 1568 51 105 c109
229 109 442 0 669 -43 87 -63 116 -132 186 -93 93 -183 150 -302 192 -74 26
-92 28 -230 28 -130 0 -159 -3 -219 -23 -79 -27 -151 -62 -216 -105 -25 -16
-444 -428 -932 -916 l-888 -886 0 2896 c0 2833 0 2897 -19 2972 -40 154 -138
307 -259 402 -69 55 -195 119 -277 141 -84 22 -254 27 -336 10z"/>
<path d="M4000 8533 c-307 -40 -540 -236 -642 -538 l-23 -70 -3 -1600 c-2
-1436 -1 -1608 13 -1680 58 -287 274 -511 566 -586 46 -12 868 -14 5424 -14
l5370 0 94 33 c123 43 199 89 289 176 91 88 151 182 194 306 l33 95 0 1625 c0
1834 7 1671 -81 1847 -96 193 -280 338 -492 390 -40 10 -109 16 -172 16 -63 0
-132 -6 -172 -16 -212 -52 -400 -200 -494 -392 -85 -174 -78 -61 -82 -1397
l-2 -1188 -4495 0 -4494 0 -3 1188 -3 1187 -23 73 c-82 266 -291 468 -545 527
-69 16 -203 26 -257 18z"/>
</g>
</svg>
