<svg width="16" height="17" viewBox="0 0 16 17" fill="none" xmlns="http://www.w3.org/2000/svg">
<path fill-rule="evenodd" clip-rule="evenodd" d="M8.00033 3.01807C4.66699 3.01807 1.82033 5.0914 0.666992 8.01807C1.82033 10.9447 4.66699 13.0181 8.00033 13.0181C11.3337 13.0181 14.1803 10.9447 15.3337 8.01807C14.1803 5.0914 11.3337 3.01807 8.00033 3.01807ZM8.00032 11.3514C6.16032 11.3514 4.66699 9.85807 4.66699 8.01807C4.66699 6.17807 6.16032 4.68473 8.00032 4.68473C9.84032 4.68473 11.3337 6.17807 11.3337 8.01807C11.3337 9.85807 9.84032 11.3514 8.00032 11.3514ZM8 6.01807C6.89333 6.01807 6 6.9114 6 8.01807C6 9.12473 6.89333 10.0181 8 10.0181C9.10667 10.0181 10 9.12473 10 8.01807C10 6.9114 9.10667 6.01807 8 6.01807Z" fill="#8F8F8F"/>
</svg>
