<svg width="40" height="40" viewBox="0 0 40 40" fill="none" xmlns="http://www.w3.org/2000/svg">
<path d="M20.0002 0.833344C9.42016 0.833344 0.833496 9.42001 0.833496 20C0.833496 30.58 9.42016 39.1667 20.0002 39.1667C30.5802 39.1667 39.1668 30.58 39.1668 20C39.1668 9.42001 30.5802 0.833344 20.0002 0.833344ZM20.0002 8.50001C23.6993 8.50001 26.7085 11.5092 26.7085 15.2083C26.7085 18.9075 23.6993 21.9167 20.0002 21.9167C16.301 21.9167 13.2918 18.9075 13.2918 15.2083C13.2918 11.5092 16.301 8.50001 20.0002 8.50001ZM20.0002 35.3333C16.1093 35.3333 11.5093 33.7617 8.23183 29.8133C11.5891 27.1793 15.7329 25.7477 20.0002 25.7477C24.2674 25.7477 28.4113 27.1793 31.7685 29.8133C28.491 33.7617 23.891 35.3333 20.0002 35.3333Z" fill="#AF2035"/>
</svg>
