<svg width="32" height="32" viewBox="0 0 32 32" fill="none" xmlns="http://www.w3.org/2000/svg">
<path d="M30.3357 26.3873L23.1556 19.2072C24.275 17.3701 24.8654 15.2595 24.8618 13.1082C24.8618 6.61594 19.2359 0.991944 12.7436 0.991944C11.2001 0.991694 9.67161 1.29553 8.24551 1.88611C6.81941 2.47668 5.52362 3.34242 4.43217 4.43388C3.34072 5.52533 2.47498 6.82112 1.8844 8.24722C1.29383 9.67332 0.989985 11.2018 0.990235 12.7453C0.990235 19.2357 6.61614 24.8616 13.1065 24.8616C15.1869 24.8635 17.2301 24.3099 19.025 23.258L26.2431 30.4799C26.5826 30.8185 27.0424 31.0086 27.5218 31.0086C28.0012 31.0086 28.4611 30.8185 28.8005 30.4799L30.5922 28.6882C31.2971 27.9833 31.0406 27.0922 30.3357 26.3873ZM4.60784 12.7453C4.60759 11.6768 4.81784 10.6186 5.22659 9.63132C5.63534 8.64402 6.23458 7.74692 6.99008 6.99124C7.74559 6.23556 8.64256 5.63611 9.62976 5.22713C10.617 4.81814 11.6751 4.60764 12.7436 4.60764C17.239 4.60764 21.2442 8.61094 21.2442 13.1082C21.2437 15.2663 20.3862 17.3359 18.8602 18.8619C17.3342 20.3879 15.2646 21.2454 13.1065 21.2459C8.61114 21.244 4.60784 17.2388 4.60784 12.7453Z" fill="white"/>
</svg>
