<svg width="16" height="16" viewBox="0 0 16 16" fill="none" xmlns="http://www.w3.org/2000/svg">
<path d="M9 2.49995C8.99999 2.40161 8.97098 2.30545 8.9166 2.22352C8.86222 2.14158 8.78489 2.07749 8.69427 2.03928C8.60366 2.00107 8.50379 1.99044 8.40715 2.0087C8.31052 2.02696 8.22142 2.07331 8.151 2.14195L5.224 4.99195H3.5C3.10218 4.99195 2.72064 5.14999 2.43934 5.43129C2.15804 5.7126 2 6.09413 2 6.49195V9.48195C2 9.87978 2.15804 10.2613 2.43934 10.5426C2.72064 10.8239 3.10218 10.982 3.5 10.982H5.223L8.15 13.857C8.22031 13.9259 8.30941 13.9725 8.40612 13.991C8.50283 14.0095 8.60284 13.999 8.69362 13.9609C8.78439 13.9227 8.86189 13.8587 8.9164 13.7767C8.9709 13.6947 8.99999 13.5984 9 13.5V2.49995ZM10.111 5.18895C10.1519 5.13751 10.2025 5.09462 10.26 5.06275C10.3174 5.03089 10.3806 5.01066 10.4459 5.00323C10.5112 4.9958 10.5773 5.00131 10.6405 5.01945C10.7036 5.03759 10.7626 5.06801 10.814 5.10895L10.816 5.10995L10.818 5.11195L10.823 5.11595L10.838 5.12895L10.884 5.16895C10.92 5.20295 10.969 5.24895 11.026 5.31095C11.139 5.43395 11.286 5.61295 11.431 5.85095C11.722 6.33095 12.004 7.04395 12.004 7.99895C12.004 8.95295 11.722 9.66695 11.431 10.147C11.3143 10.3403 11.1787 10.5215 11.026 10.688C10.9624 10.757 10.895 10.8225 10.824 10.884L10.816 10.891H10.815C10.815 10.891 10.368 11.134 10.112 10.813C10.0297 10.71 9.99137 10.5786 10.0054 10.4475C10.0195 10.3164 10.0847 10.1962 10.187 10.113L10.189 10.111L10.188 10.112L10.19 10.111H10.189L10.207 10.095C10.225 10.078 10.255 10.05 10.292 10.01C10.3991 9.89234 10.4942 9.76438 10.576 9.62795C10.786 9.28295 11.004 8.74595 11.004 7.99795C11.004 7.25095 10.786 6.71495 10.576 6.37095C10.4732 6.20123 10.3496 6.04502 10.208 5.90595C10.1533 5.86617 10.1073 5.8157 10.0727 5.75761C10.038 5.69953 10.0156 5.63502 10.0066 5.56799C9.99761 5.50097 10.0023 5.43282 10.0204 5.36767C10.0386 5.30252 10.0697 5.24172 10.112 5.18895H10.111ZM11.813 3.10895C11.7618 3.06659 11.7027 3.03485 11.6391 3.0156C11.5755 2.99635 11.5087 2.98996 11.4426 2.99682C11.3765 3.00367 11.3125 3.02363 11.2542 3.05553C11.1959 3.08743 11.1445 3.13062 11.1031 3.18259C11.0617 3.23456 11.0311 3.29426 11.0131 3.3582C10.995 3.42215 10.9898 3.48905 10.9979 3.555C11.006 3.62095 11.0272 3.68463 11.0601 3.74231C11.0931 3.79999 11.1373 3.85052 11.19 3.89095L11.201 3.90095L11.253 3.94595C11.3 3.98795 11.369 4.05295 11.454 4.14095C11.624 4.31795 11.854 4.58395 12.084 4.93495C12.544 5.63595 13.004 6.66795 13.004 8.00395C13.0066 9.09403 12.6865 10.1605 12.084 11.069C11.854 11.419 11.624 11.683 11.454 11.859C11.3736 11.9426 11.2895 12.0227 11.202 12.099L11.191 12.109H11.19C11.0891 12.1925 11.025 12.3123 11.0115 12.4426C10.9979 12.5728 11.0361 12.7032 11.1177 12.8057C11.1993 12.9082 11.3179 12.9745 11.4479 12.9904C11.578 13.0064 11.709 12.9707 11.813 12.891L11.846 12.864L11.921 12.799C11.984 12.742 12.071 12.661 12.174 12.554C12.4512 12.2658 12.7009 11.9524 12.92 11.618C13.6292 10.5463 14.0059 9.289 14.003 8.00395C14.0055 6.71771 13.6288 5.45926 12.92 4.38595C12.701 4.05108 12.4516 3.73708 12.175 3.44795C12.0705 3.33933 11.961 3.23555 11.847 3.13695L11.824 3.11795L11.817 3.11195L11.815 3.10995L11.813 3.10895ZM10.19 5.88995L10.188 5.88895L10.19 5.88995Z" fill="#FFF9EC"/>
</svg>
